<svg width="39" height="51" viewBox="0 0 39 51" fill="none" xmlns="http://www.w3.org/2000/svg">
<path d="M6.41526 0.56391C5.56582 1.20875 5.51101 2.0954 6.19605 2.98205C6.68927 3.60002 6.68927 3.8687 6.33305 8.57064L5.94943 13.4875L4.63417 15.1534C1.94885 18.5119 0.633585 21.6286 0.140362 25.7126C-0.517269 31.2743 1.15421 36.836 4.77118 41.2693L5.67542 42.344L5.2644 43.9024C5.04519 44.7622 4.88078 45.4876 4.93559 45.5145C4.99039 45.5413 7.4291 46.1324 10.361 46.831C13.293 47.5296 18.28 48.6849 21.4038 49.4372C24.5549 50.1895 27.2402 50.7269 27.3772 50.6463C27.5142 50.5388 27.6238 50.297 27.6238 50.0552C27.6238 49.8134 27.7609 49.1954 27.9253 48.6312C28.1993 47.7445 28.4733 47.5296 30.1174 46.7235C31.1586 46.2399 32.0081 45.7294 32.0081 45.5951C32.0081 45.4607 31.5696 44.8428 30.9942 44.2517C30.0078 43.1769 30.0078 43.1501 30.5558 42.747C32.9123 40.9737 33.6521 40.302 34.6934 39.1198C36.9951 36.4599 38.8584 31.543 38.8584 28.077C38.8584 26.0887 38.0637 22.8377 37.1047 20.8226C35.8716 18.2701 34.2824 16.2818 32.0629 14.5354C31.049 13.7293 30.2544 12.9502 30.3092 12.789C30.364 12.6277 30.775 12.1173 31.2134 11.6874C31.6518 11.2306 32.0081 10.7201 32.0081 10.5589C32.0081 10.1559 28.1171 8.49004 25.8428 7.89894C23.1848 7.2541 19.0746 7.2541 16.2523 7.92581C15.0467 8.22136 12.9368 9.00054 11.5667 9.67224L9.04578 10.9082L8.88137 9.69911C8.77177 9.00054 8.63476 7.30784 8.52515 5.91069C8.38815 3.73436 8.44295 3.30447 8.82657 2.98205C9.5116 2.41782 9.37459 1.20875 8.55256 0.56391C8.14154 0.241491 7.67571 -0.000322657 7.48391 -0.000322657C7.2921 -0.000322657 6.82627 0.241491 6.41526 0.56391ZM22.6916 11.0157C23.9795 11.1769 25.4591 11.4187 25.9798 11.5799C27.3498 11.9829 29.5419 12.9502 29.5419 13.1651C29.5419 13.3801 27.2128 16.1744 24.7467 18.9418C23.9521 19.8284 22.6368 21.3599 21.8148 22.3272L20.3351 24.1273L19.2665 23.59C17.9786 22.9451 15.9783 22.8914 14.8274 23.4556C12.882 24.4498 11.4845 27.0023 11.8681 28.8293C11.9777 29.3129 12.3613 30.1996 12.7176 30.8175C13.8958 32.8058 17.0196 33.7193 19.1569 32.6714C19.6501 32.4296 20.1433 32.2416 20.2529 32.2416C20.5817 32.2416 29.5419 42.6664 29.5419 43.0157C29.5419 43.2844 26.3086 44.5472 24.8837 44.8696C23.0752 45.2458 18.691 45.192 16.8003 44.7353C8.85397 42.8814 3.0723 35.2239 3.59292 27.2709C4.14095 18.8074 10.2514 12.2516 18.7184 11.0425C19.6227 10.9082 20.3625 10.8007 20.3625 10.7738C20.3625 10.7738 21.4312 10.8813 22.6916 11.0157ZM32.8575 17.679C33.4877 18.3775 34.2824 19.3717 34.6112 19.8822C35.5154 21.3062 36.5841 24.3423 36.8033 26.2499L36.9951 27.9426H36.1456C35.3784 27.9426 35.2962 27.862 35.2962 27.056C35.2688 24.2617 33.5151 20.5807 31.0216 18.1357C29.2679 16.4162 29.2131 16.3356 29.6789 15.8519C30.1448 15.3414 30.1722 15.3414 30.9394 15.8519C31.3504 16.1475 32.2273 16.9804 32.8575 17.679ZM18.417 27.4859C18.8554 28.6412 18.2526 29.5547 17.0744 29.5547C15.8139 29.5547 15.0467 28.5337 15.5399 27.5127C16.1427 26.1962 17.9512 26.1693 18.417 27.4859Z" fill="#222222"/>
</svg>
