<svg width="14" height="14" viewBox="0 0 14 14" fill="none" xmlns="http://www.w3.org/2000/svg">
<path d="M6.60891 0.821225C6.6994 0.399866 7.3006 0.399866 7.39108 0.821225L8.35992 5.33297C8.39297 5.48684 8.51316 5.60703 8.66703 5.64008L13.1788 6.60891C13.6001 6.6994 13.6001 7.3006 13.1788 7.39108L8.66703 8.35992C8.51316 8.39297 8.39297 8.51316 8.35992 8.66703L7.39108 13.1788C7.3006 13.6001 6.6994 13.6001 6.60892 13.1788L5.64008 8.66703C5.60703 8.51316 5.48684 8.39297 5.33297 8.35992L0.821225 7.39108C0.399866 7.3006 0.399866 6.6994 0.821225 6.60892L5.33297 5.64008C5.48684 5.60703 5.60703 5.48684 5.64008 5.33297L6.60891 0.821225Z" fill="#222222"/>
</svg>
